<?xml version="1.0" encoding="UTF-8" standalone="no"?>
<!-- Created with Inkscape (http://www.inkscape.org/) -->

<svg
   xmlns:dc="http://purl.org/dc/elements/1.1/"
   xmlns:cc="http://creativecommons.org/ns#"
   xmlns:rdf="http://www.w3.org/1999/02/22-rdf-syntax-ns#"
   xmlns:svg="http://www.w3.org/2000/svg"
   xmlns="http://www.w3.org/2000/svg"
   xmlns:sodipodi="http://sodipodi.sourceforge.net/DTD/sodipodi-0.dtd"
   xmlns:inkscape="http://www.inkscape.org/namespaces/inkscape"
   width="1024"
   height="512"
   viewBox="0 0 270.93334 135.46666"
   version="1.1"
   id="svg8"
   inkscape:version="0.92.1 r15371"
   sodipodi:docname="biotite_logo.svg"
   inkscape:export-filename="/home/padix/data/Informatik/biotite/doc/static/assets/general/biotite_logo_l.png"
   inkscape:export-xdpi="96"
   inkscape:export-ydpi="96">
  <defs
     id="defs2">
    <marker
       inkscape:stockid="Arrow1Lstart"
       orient="auto"
       refY="0.0"
       refX="0.0"
       id="Arrow1Lstart"
       style="overflow:visible"
       inkscape:isstock="true">
      <path
         id="path5415"
         d="M 0.0,0.0 L 5.0,-5.0 L -12.5,0.0 L 5.0,5.0 L 0.0,0.0 z "
         style="fill-rule:evenodd;stroke:#000000;stroke-width:1.0pt"
         transform="scale(0.8) translate(12.5,0)" />
    </marker>
  </defs>
  <sodipodi:namedview
     id="base"
     pagecolor="#ffffff"
     bordercolor="#666666"
     borderopacity="1.0"
     inkscape:pageopacity="0.0"
     inkscape:pageshadow="2"
     inkscape:zoom="1"
     inkscape:cx="569.93348"
     inkscape:cy="311.96132"
     inkscape:document-units="px"
     inkscape:current-layer="g5391"
     showgrid="false"
     units="px"
     inkscape:window-width="1920"
     inkscape:window-height="1002"
     inkscape:window-x="0"
     inkscape:window-y="1050"
     inkscape:window-maximized="1"
     showguides="true"
     inkscape:guide-bbox="true"
     inkscape:lockguides="false"
     inkscape:measure-start="145.66,389.051"
     inkscape:measure-end="69.1955,256.216"
     inkscape:snap-global="false" />
  <metadata
     id="metadata5">
    <rdf:RDF>
      <cc:Work
         rdf:about="">
        <dc:format>image/svg+xml</dc:format>
        <dc:type
           rdf:resource="http://purl.org/dc/dcmitype/StillImage" />
        <dc:title />
      </cc:Work>
    </rdf:RDF>
  </metadata>
  <g
     inkscape:label="Layer 1"
     inkscape:groupmode="layer"
     id="layer1"
     transform="translate(0,-161.53336)">
    <g
       aria-label="tite"
       style="font-style:normal;font-variant:normal;font-weight:normal;font-stretch:normal;font-size:95.25px;line-height:1.25;font-family:Iceland;-inkscape-font-specification:'Iceland, Normal';font-variant-ligatures:normal;font-variant-caps:normal;font-variant-numeric:normal;font-feature-settings:normal;text-align:start;letter-spacing:0px;word-spacing:0px;writing-mode:lr-tb;text-anchor:start;fill:#ff8405;fill-opacity:1;stroke:none;stroke-width:0.35309431"
       id="text4512">
      <path
         d="m 169.09795,249.7663 h -13.335 q -2.76225,0 -4.7625,-1.905 -1.905,-2.00025 -1.905,-4.7625 v -20.955 h -9.525 l 5.715,-5.715 h 3.81 v -6.6675 l 6.6675,-6.6675 v 13.335 h 13.335 v 5.715 h -13.335 v 21.9075 h 13.335 z"
         style="font-style:normal;font-variant:normal;font-weight:normal;font-stretch:normal;font-size:95.25px;font-family:Iceland;-inkscape-font-specification:'Iceland, Normal';font-variant-ligatures:normal;font-variant-caps:normal;font-variant-numeric:normal;font-feature-settings:normal;text-align:start;writing-mode:lr-tb;text-anchor:start;fill:#ff8405;fill-opacity:1;stroke-width:0.35309431"
         id="path5356" />
      <path
         d="m 185.29789,210.7138 h -6.6675 v -7.62 h 6.6675 z m 0,39.0525 h -6.6675 v -28.575 l 6.6675,-6.6675 z"
         style="font-style:normal;font-variant:normal;font-weight:normal;font-stretch:normal;font-size:95.25px;font-family:Iceland;-inkscape-font-specification:'Iceland, Normal';font-variant-ligatures:normal;font-variant-caps:normal;font-variant-numeric:normal;font-feature-settings:normal;text-align:start;writing-mode:lr-tb;text-anchor:start;fill:#ff8405;fill-opacity:1;stroke-width:0.35309431"
         id="path5358" />
      <path
         d="m 220.62969,249.7663 h -13.335 q -2.76225,0 -4.7625,-1.905 -1.905,-2.00025 -1.905,-4.7625 v -20.955 h -9.525 l 5.715,-5.715 h 3.81 v -6.6675 l 6.6675,-6.6675 v 13.335 h 13.335 v 5.715 h -13.335 v 21.9075 h 13.335 z"
         style="font-style:normal;font-variant:normal;font-weight:normal;font-stretch:normal;font-size:95.25px;font-family:Iceland;-inkscape-font-specification:'Iceland, Normal';font-variant-ligatures:normal;font-variant-caps:normal;font-variant-numeric:normal;font-feature-settings:normal;text-align:start;writing-mode:lr-tb;text-anchor:start;fill:#ff8405;fill-opacity:1;stroke-width:0.35309431"
         id="path5360" />
      <path
         d="m 263.49963,249.7663 h -26.67 q -2.76225,0 -4.7625,-1.905 -1.905,-2.00025 -1.905,-4.7625 v -20.0025 q 0,-2.76225 1.905,-4.66725 2.00025,-2.00025 4.7625,-2.00025 h 20.0025 q 2.76225,0 4.66725,2.00025 2.00025,1.905 2.00025,4.66725 v 6.6675 l -6.6675,6.6675 h -19.05 l 5.715,-5.715 h 13.335 v -8.5725 h -20.0025 v 21.9075 h 26.67 z"
         style="font-style:normal;font-variant:normal;font-weight:normal;font-stretch:normal;font-size:95.25px;font-family:Iceland;-inkscape-font-specification:'Iceland, Normal';font-variant-ligatures:normal;font-variant-caps:normal;font-variant-numeric:normal;font-feature-settings:normal;text-align:start;writing-mode:lr-tb;text-anchor:start;fill:#ff8405;fill-opacity:1;stroke-width:0.35309431"
         id="path5362" />
    </g>
    <g
       id="g4607"
       transform="translate(-2.6458334)">
      <path
         id="path4599"
         d="M 61.358159,229.2587 34.194726,276.16231 H 116.3836 L 89.383644,229.2587 Z"
         style="fill:#dc7000;fill-opacity:1;stroke:none;stroke-width:0.70618862;stroke-miterlimit:4;stroke-dasharray:none;stroke-dashoffset:0;stroke-opacity:1"
         inkscape:connector-curvature="0" />
      <path
         id="path4596"
         d="M 7.1954248,229.2587 34.194726,276.16231 61.358159,229.2587 Z"
         style="fill:#ff8405;fill-opacity:1;stroke:none;stroke-width:0.70618862;stroke-miterlimit:4;stroke-dasharray:none;stroke-dashoffset:0;stroke-opacity:1"
         inkscape:connector-curvature="0" />
      <path
         id="path4573"
         d="M 89.383644,229.2587 116.3836,276.16231 143.54635,229.2587 Z"
         style="fill:#b45c00;fill-opacity:1;stroke:none;stroke-width:0.70618862;stroke-miterlimit:4;stroke-dasharray:none;stroke-dashoffset:0;stroke-opacity:1"
         inkscape:connector-curvature="0" />
      <path
         id="path4590"
         d="M 116.3836,182.35577 89.383644,229.2587 h 54.162706 z"
         style="fill:#dc7000;fill-opacity:1;stroke:none;stroke-width:0.70618862;stroke-miterlimit:4;stroke-dasharray:none;stroke-dashoffset:0;stroke-opacity:1"
         inkscape:connector-curvature="0" />
      <path
         id="path4593"
         d="M 34.194726,182.35577 7.1954248,229.2587 H 61.358159 Z"
         style="fill:#ff982d;fill-opacity:1;stroke:none;stroke-width:0.70618862;stroke-miterlimit:4;stroke-dasharray:none;stroke-dashoffset:0;stroke-opacity:1"
         inkscape:connector-curvature="0" />
      <path
         id="rect4514"
         d="M 34.194726,182.35577 61.358159,229.2587 H 89.383644 L 116.3836,182.35577 Z"
         style="fill:#ff8405;fill-opacity:1;stroke:none;stroke-width:0.70618862;stroke-miterlimit:4;stroke-dasharray:none;stroke-dashoffset:0;stroke-opacity:1"
         inkscape:connector-curvature="0" />
      <path
         inkscape:connector-curvature="0"
         style="fill:#ffb569;fill-opacity:1;stroke:none;stroke-width:0.70618862;stroke-miterlimit:4;stroke-dasharray:none;stroke-dashoffset:0;stroke-opacity:1"
         d="m 27.444901,194.0815 -6.749826,11.72573 40.663084,23.45147 z"
         id="path5374"
         sodipodi:nodetypes="cccc" />
    </g>
    <g
       aria-label="bio"
       style="font-style:normal;font-variant:normal;font-weight:normal;font-stretch:normal;font-size:95.25px;line-height:1.25;font-family:Iceland;-inkscape-font-specification:'Iceland, Normal';font-variant-ligatures:normal;font-variant-caps:normal;font-variant-numeric:normal;font-feature-settings:normal;text-align:start;letter-spacing:0px;word-spacing:0px;writing-mode:lr-tb;text-anchor:start;fill:#000000;fill-opacity:1;stroke:none;stroke-width:0.35309431"
       id="text4506">
      <path
         d="m 58.893337,243.14726 q 0,2.76225 -2.00025,4.7625 -1.905,1.905 -4.66725,1.905 h -20.0025 v -5.61975 l -6.6675,6.57225 v -49.53 l 6.6675,-6.6675 v 26.67 l 4.7625,-4.7625 h 15.24 q 2.76225,0 4.66725,2.00025 2.00025,1.905 2.00025,4.66725 z m -6.6675,0.9525 v -21.9075 h -20.0025 v 21.9075 z"
         style="font-style:normal;font-variant:normal;font-weight:normal;font-stretch:normal;font-size:95.25px;font-family:Iceland;-inkscape-font-specification:'Iceland, Normal';font-variant-ligatures:normal;font-variant-caps:normal;font-variant-numeric:normal;font-feature-settings:normal;text-align:start;writing-mode:lr-tb;text-anchor:start;fill:#ffffff;fill-opacity:1;stroke-width:0.35309431"
         id="path5365" />
      <path
         d="m 78.895837,210.76226 h -6.6675 v -7.62 h 6.6675 z m 0,39.0525 h -6.6675 v -28.575 l 6.6675,-6.6675 z"
         style="font-style:normal;font-variant:normal;font-weight:normal;font-stretch:normal;font-size:95.25px;font-family:Iceland;-inkscape-font-specification:'Iceland, Normal';font-variant-ligatures:normal;font-variant-caps:normal;font-variant-numeric:normal;font-feature-settings:normal;text-align:start;writing-mode:lr-tb;text-anchor:start;fill:#ffffff;fill-opacity:1;stroke-width:0.35309431"
         id="path5367" />
      <path
         d="m 125.65763,243.14726 q 0,2.76225 -2.00025,4.7625 -1.905,1.905 -4.66725,1.905 H 98.987634 q -2.76225,0 -4.7625,-1.905 -1.905,-2.00025 -1.905,-4.7625 v -20.0025 q 0,-2.76225 1.905,-4.66725 2.00025,-2.00025 4.7625,-2.00025 h 20.002496 q 2.76225,0 4.66725,2.00025 2.00025,1.905 2.00025,4.66725 z m -6.6675,0.9525 v -21.9075 H 98.987634 v 21.9075 z"
         style="font-style:normal;font-variant:normal;font-weight:normal;font-stretch:normal;font-size:95.25px;font-family:Iceland;-inkscape-font-specification:'Iceland, Normal';font-variant-ligatures:normal;font-variant-caps:normal;font-variant-numeric:normal;font-feature-settings:normal;text-align:start;writing-mode:lr-tb;text-anchor:start;fill:#ffffff;fill-opacity:1;stroke-width:0.35309431"
         id="path5369" />
    </g>
    <g
       id="g5391"
       transform="matrix(1.0379851,0,0,0.99870587,-4.0539599,0.33465451)">
      <path
         style="color:#8989d8;font-style:normal;font-variant:normal;font-weight:normal;font-stretch:normal;font-size:medium;line-height:normal;font-family:sans-serif;font-variant-ligatures:normal;font-variant-position:normal;font-variant-caps:normal;font-variant-numeric:normal;font-variant-alternates:normal;font-feature-settings:normal;text-indent:0;text-align:start;text-decoration:none;text-decoration-line:none;text-decoration-style:solid;text-decoration-color:#000000;letter-spacing:normal;word-spacing:normal;text-transform:none;writing-mode:lr-tb;direction:ltr;text-orientation:mixed;dominant-baseline:auto;baseline-shift:baseline;text-anchor:start;white-space:normal;shape-padding:0;clip-rule:nonzero;display:inline;overflow:visible;visibility:visible;opacity:1;isolation:auto;mix-blend-mode:normal;color-interpolation:sRGB;color-interpolation-filters:linearRGB;solid-color:#000000;solid-opacity:1;vector-effect:none;fill:#fbfbfb;fill-opacity:1;fill-rule:nonzero;stroke:none;stroke-width:0.77959561;stroke-linecap:square;stroke-linejoin:miter;stroke-miterlimit:4;stroke-dasharray:none;stroke-dashoffset:0;stroke-opacity:1;color-rendering:auto;image-rendering:auto;shape-rendering:auto;text-rendering:auto;enable-background:accumulate"
         d="m 54.958984,253.06836 -0.308593,0.0488 -0.335938,0.0508 -0.349609,0.16015 -0.308594,0.1875 -0.332031,0.22657 -0.314453,0.24023 -0.302735,0.32227 -0.296875,0.3164 -0.294922,0.4043 -0.28125,0.38672 -0.285156,0.39258 -0.291016,0.44336 -0.283203,0.47656 -0.28125,0.4707 -0.279297,0.47071 -0.285156,0.47656 -0.279297,0.51367 -0.277343,0.46484 -0.28125,0.47071 -0.279297,0.4707 -0.277344,0.46289 -0.269531,0.41211 -0.275391,0.37695 -0.279297,0.38672 -0.267578,0.36524 -0.263672,0.28125 -0.257812,0.27539 -0.246094,0.1875 -0.298828,0.20312 -0.251953,0.1543 -0.208985,0.0957 -0.226562,0.0352 -0.251953,0.0391 h -0.19336 l -0.199218,-0.0625 -0.25586,-0.11719 -0.242187,-0.10937 -0.244141,-0.1875 -0.255859,-0.19531 -0.257813,-0.2754 -0.271484,-0.28906 -0.265625,-0.32422 -0.267578,-0.36914 -0.275391,-0.41992 -0.279297,-0.42773 -0.277344,-0.41993 -0.27539,-0.46289 -0.28125,-0.4707 -0.275391,-0.46484 -0.28125,-0.51367 -0.283203,-0.47657 -0.28125,-0.4707 -0.285156,-0.48047 -0.320313,-0.47656 -0.279297,-0.42578 -0.285156,-0.43555 -0.292968,-0.40234 -0.28711,-0.35157 -0.289062,-0.35156 -0.310547,-0.33203 -0.306641,-0.23437 -0.296875,-0.22657 -0.316406,-0.19336 -0.326172,-0.14843 -0.332031,-0.10157 -0.337891,-0.0508 h -0.367187 l -0.335938,0.10157 -0.304687,0.0937 -0.34375,0.15626 -0.316407,0.24023 -0.304687,0.23437 -0.302735,0.32227 -0.289062,0.31055 -0.296875,0.35937 -0.287109,0.39453 -0.285157,0.39258 -0.279297,0.42774 -0.320312,0.43359 -0.291016,0.48828 -0.283203,0.47656 -0.28125,0.51367 -0.27539,0.4629 -0.28125,0.4707 -0.28125,0.4707 -0.279297,0.4707 -0.275391,0.4629 -0.277344,0.42187 -0.27539,0.41992 -0.273438,0.37696 -0.273437,0.37695 -0.265625,0.32226 -0.261719,0.2793 -0.255859,0.23438 -0.25,0.1914 -0.244141,0.14844 -0.236328,0.10742 -0.253906,0.0781 -0.07734,0.0225 0.384549,0.69664 0.224036,-0.0649 0.326172,-0.15039 0.316406,-0.19336 0.310547,-0.23632 0.304687,-0.2793 0.298828,-0.32031 0.296875,-0.35938 0.28711,-0.39453 0.285156,-0.39258 0.285156,-0.43555 0.285156,-0.43554 0.285157,-0.47852 0.279296,-0.4707 0.28125,-0.46875 0.279297,-0.4707 0.285157,-0.47852 0.279296,-0.51172 0.277344,-0.46484 0.271485,-0.45508 0.310547,-0.41992 0.279296,-0.42969 0.275391,-0.37695 0.273437,-0.37696 0.265626,-0.32226 0.271484,-0.29102 0.257812,-0.27539 0.25586,-0.19336 0.24414,-0.1875 0.21875,-0.0996 0.253907,-0.0781 0.224609,-0.0684 h 0.193359 l 0.222657,0.0332 0.228515,0.0703 0.236328,0.10743 0.244141,0.14843 0.263672,0.20118 0.253906,0.19531 0.25,0.26562 0.271484,0.33203 0.273438,0.33399 0.267578,0.36914 0.275391,0.41992 0.28125,0.42774 0.3125,0.46484 0.273437,0.46094 0.28125,0.4707 0.277344,0.46484 0.279297,0.51368 0.285156,0.47656 0.279297,0.4707 0.285156,0.47852 0.285156,0.43359 0.279297,0.42774 0.28711,0.43554 0.291015,0.40235 0.296875,0.36132 0.289063,0.3086 0.302734,0.32226 0.304688,0.23438 0.316406,0.24023 0.320312,0.14649 0.302735,0.13867 0.361328,0.11133 h 0.367187 l 0.310547,-0.0469 0.333985,-0.0527 0.351562,-0.16016 0.306641,-0.1875 0.333984,-0.22461 0.314453,-0.24219 0.302735,-0.32226 0.296875,-0.31641 0.292968,-0.40429 0.28125,-0.38672 0.285157,-0.39258 0.291015,-0.44141 0.285157,-0.47851 0.279297,-0.47071 0.28125,-0.4707 0.283203,-0.47656 0.28125,-0.51367 0.27539,-0.46485 0.28125,-0.4707 0.28125,-0.4707 0.275391,-0.46289 0.269531,-0.41211 0.275391,-0.37696 0.28125,-0.38671 0.265625,-0.36524 0.263672,-0.28125 0.257812,-0.27539 0.246094,-0.1875 0.298828,-0.20312 0.251953,-0.1543 0.210938,-0.0957 0.226562,-0.0352 0.25,-0.0371 h 0.19336 l 0.199218,0.0605 0.257813,0.11718 0.240234,0.10938 0.246094,0.1875 0.253906,0.19531 0.257813,0.27539 0.271484,0.29102 0.265625,0.32226 0.267578,0.36914 0.275391,0.41993 0.28125,0.42773 0.27539,0.41992 0.275391,0.46485 0.28125,0.4707 0.277344,0.46289 0.279297,0.51367 0.285156,0.47656 0.279297,0.47071 0.285156,0.48047 0.320313,0.47656 0.279296,0.42578 0.285157,0.4375 0.292968,0.40039 0.28711,0.35156 0.289062,0.35156 0.3125,0.33399 0.304688,0.23242 0.296875,0.22656 0.318359,0.19336 0.324219,0.14844 0.332031,0.10156 0.337891,0.0527 h 0.367187 l 0.335938,-0.10352 0.30664,-0.0918 0.34375,-0.15821 0.314453,-0.24023 0.306641,-0.23438 0.302735,-0.32226 0.289062,-0.3086 0.294922,-0.36132 0.287109,-0.39454 0.285157,-0.39257 0.28125,-0.42579 0.320312,-0.43554 0.289062,-0.48633 0.285157,-0.47656 0.279297,-0.51367 0.277343,-0.46485 0.279297,-0.4707 0.28125,-0.47071 0.279297,-0.4707 0.277344,-0.46289 0.275391,-0.42187 0.27539,-0.41993 0.275391,-0.37695 0.273437,-0.375 0.263672,-0.32422 0.261719,-0.27929 0.257812,-0.23438 0.25,-0.19141 0.242188,-0.14843 0.236328,-0.10743 0.228516,-0.0703 0.222656,-0.0332 h 0.222656 l 0.197266,0.0293 0.230469,0.10547 0.267578,0.12304 0.277343,0.15039 0.230469,0.17578 0.257813,0.27539 0.271484,0.29102 0.273437,0.33203 0.273438,0.33399 0.267578,0.36718 0.269531,0.41407 0.28125,0.4707 0.279297,0.42773 0.273438,0.45703 0.279297,0.51368 0.08398,0.14062 0.199219,0.33594 0.201172,0.33398 0.07617,0.12891 0.28125,0.51367 0.287109,0.48438 0.28125,0.42773 0.279297,0.4707 0.291015,0.44336 0.292969,0.40039 0.28711,0.35157 0.289062,0.35156 0.289062,0.31055 0.302735,0.32226 0.330078,0.25195 0.353516,0.19141 0.291015,0.13477 0.330078,0.15039 0.363282,0.0566 h 0.339843 l 0.337891,-0.0527 0.332031,-0.10156 0.326172,-0.14844 0.316406,-0.19336 0.310547,-0.23632 0.304688,-0.2793 0.298828,-0.32031 0.294922,-0.35938 0.287109,-0.39453 0.287109,-0.39258 0.285157,-0.43555 0.285156,-0.43554 0.285156,-0.47852 0.279297,-0.4707 0.28125,-0.4707 0.279297,-0.47071 0.285156,-0.47656 0.279297,-0.51367 0.277344,-0.46289 0.269531,-0.45508 0.310547,-0.41992 0.28125,-0.42969 0.275391,-0.37695 0.273437,-0.37696 0.265625,-0.32226 0.271485,-0.29102 0.257812,-0.27539 0.253906,-0.19531 0.246094,-0.1875 0.216797,-0.0977 0.255859,-0.0781 0.22461,-0.0684 h 0.193359 l 0.222656,0.0332 0.228516,0.0703 0.236328,0.10743 0.242187,0.14843 0.265626,0.20118 0.253906,0.19531 0.25,0.26562 0.271484,0.33203 0.273438,0.33399 0.267578,0.36719 0.27539,0.41992 0.28125,0.42969 0.310547,0.46484 0.275391,0.46094 0.28125,0.4707 0.27539,0.46484 0.28125,0.51368 0.283204,0.47656 0.28125,0.4707 0.285156,0.47656 0.283203,0.43555 0.28125,0.42774 0.285156,0.43554 0.292969,0.40235 0.294922,0.36132 0.289062,0.3086 0.302735,0.32226 0.306642,0.23438 0.31444,0.24023 0.32032,0.14649 0.30468,0.13867 0.36133,0.11133 h 0.36719 l 0.31054,-0.0488 0.33399,-0.0508 0.34961,-0.16016 0.30859,-0.1875 0.33203,-0.22656 0.31641,-0.24024 0.30078,-0.32226 0.29688,-0.31641 0.29492,-0.40625 0.28125,-0.38476 0.28515,-0.39258 0.29102,-0.44336 0.2832,-0.47656 0.28125,-0.47071 0.28125,-0.4707 0.28321,-0.47656 0.28125,-0.51367 0.27539,-0.46485 0.28125,-0.4707 0.27929,-0.4707 0.27735,-0.46289 0.26953,-0.41211 0.27539,-0.37891 0.27931,-0.38476 0.26757,-0.36524 0.26368,-0.28125 0.25781,-0.27539 0.24609,-0.1875 0.29882,-0.20312 0.25195,-0.1543 0.21094,-0.0957 0.22461,-0.0352 0.25195,-0.0391 h 0.19336 l 0.19922,0.0625 0.25586,0.11718 0.24219,0.10938 0.24609,0.1875 0.25391,0.19531 0.25781,0.27539 0.27149,0.28906 0.26562,0.32422 0.26758,0.36914 0.27539,0.41993 0.28125,0.42773 0.27539,0.41992 0.27539,0.46289 0.28125,0.47071 0.27539,0.46484 0.28125,0.51367 0.2832,0.47656 0.28125,0.47071 0.28516,0.48047 0.32031,0.47656 0.2793,0.42578 0.28516,0.43555 0.29296,0.40234 0.28711,0.35156 0.28907,0.35156 0.31054,0.33399 0.30664,0.23242 0.29688,0.22656 0.31641,0.19336 0.32617,0.14844 0.33204,0.10156 0.23589,0.0355 0.40339,-0.72749 -0.21351,-0.0307 -0.25195,-0.0391 -0.22852,-0.0703 -0.23633,-0.10742 -0.24218,-0.14844 -0.26563,-0.20117 -0.25391,-0.19531 -0.25,-0.26563 -0.27148,-0.33203 -0.27343,-0.33398 -0.26759,-0.36914 -0.27539,-0.41797 -0.28125,-0.42969 -0.31054,-0.46484 -0.27539,-0.46094 -0.28124,-0.4707 -0.2754,-0.46485 -0.28125,-0.51367 -0.28321,-0.47656 -0.28124,-0.4707 -0.28516,-0.47657 -0.28516,-0.43554 -0.2793,-0.42774 -0.28515,-0.43555 -0.29297,-0.40234 -0.29688,-0.36133 -0.28906,-0.30859 -0.30273,-0.32227 -0.30469,-0.23437 -0.31641,-0.24024 -0.31836,-0.14648 -0.30468,-0.13867 -0.36133,-0.11133 h -0.36719 l -0.31055,0.0469 -0.33398,0.0527 -0.35156,0.16015 -0.30664,0.1875 -0.33204,0.22461 -0.3164,0.24024 -0.30274,0.32422 -0.29687,0.3164 -0.29297,0.4043 -0.28125,0.38672 -0.28516,0.39258 -0.29101,0.4414 -0.28516,0.47852 -0.2793,0.4707 -0.28124,0.47071 -0.28321,0.47656 -0.28125,0.51367 -0.27539,0.46484 -0.28125,0.47071 -0.2793,0.4707 -0.27734,0.46289 -0.26953,0.41211 -0.27539,0.37695 -0.28125,0.38672 -0.26563,0.36524 -0.26367,0.28125 -0.25781,0.27539 -0.24609,0.1875 -0.29883,0.20312 -0.25196,0.1543 -0.21093,0.0957 -0.22657,0.0352 -0.25,0.0371 h -0.19336 l -0.19921,-0.0605 -0.25782,-0.11719 -0.24023,-0.10937 -0.24609,-0.1875 -0.25391,-0.19531 -0.25781,-0.2754 -0.271479,-0.28906 -0.265624,-0.32422 -0.267579,-0.36914 -0.27539,-0.41992 -0.28125,-0.42773 -0.275391,-0.41993 -0.27539,-0.46484 -0.28125,-0.46875 -0.275391,-0.46484 -0.28125,-0.51367 -0.283203,-0.47657 -0.28125,-0.4707 -0.285156,-0.48047 -0.320313,-0.47656 -0.279297,-0.42578 -0.285156,-0.4375 -0.292969,-0.40039 -0.287109,-0.35157 -0.289063,-0.35156 -0.310547,-0.33398 -0.30664,-0.23242 -0.296875,-0.22657 -0.31836,-0.19336 -0.324218,-0.14843 -0.332032,-0.10157 -0.33789,-0.0527 H 92.11327 l -0.335937,0.10352 -0.306641,0.0937 -0.34375,0.15626 -0.314453,0.24023 -0.306641,0.23437 -0.300781,0.32227 -0.291016,0.30859 -0.294921,0.36133 -0.28711,0.39453 -0.285156,0.39258 -0.279297,0.42774 -0.320312,0.43359 -0.291016,0.48633 -0.283203,0.47851 -0.28125,0.51172 -0.277344,0.46485 -0.279297,0.4707 -0.28125,0.4707 -0.279297,0.4707 -0.277343,0.4629 -0.275391,0.42187 -0.275391,0.41992 -0.273437,0.37696 -0.275391,0.375 -0.263672,0.32421 -0.261718,0.2793 -0.25586,0.23438 -0.251953,0.1914 -0.242187,0.14844 -0.236328,0.10742 -0.228516,0.0703 -0.222656,0.0332 h -0.220704 l -0.197265,-0.0293 -0.230469,-0.10547 -0.269531,-0.12305 -0.277344,-0.15039 -0.230469,-0.17578 -0.257812,-0.27539 -0.271484,-0.29101 -0.271485,-0.33203 -0.273437,-0.33399 -0.269532,-0.36719 -0.269531,-0.41406 -0.28125,-0.4707 -0.279297,-0.42774 -0.273437,-0.45703 -0.279297,-0.51367 -0.08398,-0.14062 -0.199219,-0.33399 -0.002,-0.002 -0.199219,-0.33399 -0.07617,-0.1289 -0.279297,-0.51367 -0.289062,-0.48438 -0.28125,-0.42773 -0.279297,-0.47071 -0.291016,-0.44336 -0.292969,-0.40039 -0.287109,-0.35156 -0.287109,-0.35156 -0.289063,-0.3086 -0.302734,-0.32421 -0.330078,-0.25196 -0.353516,-0.1914 L 74.566354,253.275 74.236281,253.1247 73.873,253.07 h -0.339844 l -0.337891,0.0508 -0.332031,0.10157 -0.324219,0.14843 -0.318359,0.19336 -0.310547,0.23633 -0.304687,0.2793 -0.298828,0.32031 -0.294922,0.36133 -0.28711,0.39258 -0.287109,0.39258 -0.285156,0.4375 -0.285156,0.43359 -0.283204,0.47851 -0.28125,0.47071 -0.28125,0.4707 -0.279296,0.4707 -0.285157,0.47657 -0.279297,0.51367 -0.277343,0.46289 -0.269532,0.45508 -0.310547,0.42187 -0.28125,0.42774 -0.27539,0.37695 -0.273438,0.37695 -0.265625,0.32422 -0.271484,0.28906 -0.257813,0.27539 -0.253906,0.19532 -0.246094,0.1875 -0.216796,0.0996 -0.25586,0.0762 -0.224609,0.0703 h -0.193359 l -0.222657,-0.0352 -0.228515,-0.0703 -0.236328,-0.10742 -0.242188,-0.14844 -0.265625,-0.20117 -0.253906,-0.19336 -0.248047,-0.26758 -0.273438,-0.33203 -0.273437,-0.33398 -0.267578,-0.36719 -0.275391,-0.41992 -0.28125,-0.42969 -0.310547,-0.46484 -0.27539,-0.46094 -0.28125,-0.4707 -0.275391,-0.46485 -0.28125,-0.51367 -0.283203,-0.47656 -0.28125,-0.4707 -0.283203,-0.47657 -0.285156,-0.43554 -0.28125,-0.42774 -0.285157,-0.43555 -0.292969,-0.40234 -0.294921,-0.36133 -0.289063,-0.30859 -0.302734,-0.32227 -0.306641,-0.23437 -0.314453,-0.24024 -0.320312,-0.14648 -0.304688,-0.13867 -0.361328,-0.11133 z"
         id="path5384"
         inkscape:connector-curvature="0"
         sodipodi:nodetypes="cccccccccccccccccccccccccccccccccccccccccccccccccccccccccccccccccccccccccccccccccccccccccccccccccccccccccccccccccccccccccccccccccccccccccccccccccccccccccccccccccccccccccccccccccccccccccccccccccccccccccccccccccccccccccccccccccccccccccccccccccccccccccccccccccccccccccccccccccccccccccccccccccccccccccccccccccccccccccccccccccccccccccccccccccccccccccccccccccccccccccccccccccccccccccccccccccccccccccccccccccccccccccccccccccccccccccccccccccccccccccccccccccccccccccccccccccccccccccccccccccccccccccccccccccccccccccccccccccccccccccccccccccccccccccccccccccccccccccccccccccccccccccccccccccccccccccccccccccccccccccccccccccccccccccccccccccccccccccccccccccccccccccccccccccccccccccccccc" />
      <path
         style="color:#8989d8;font-style:normal;font-variant:normal;font-weight:normal;font-stretch:normal;font-size:medium;line-height:normal;font-family:sans-serif;font-variant-ligatures:normal;font-variant-position:normal;font-variant-caps:normal;font-variant-numeric:normal;font-variant-alternates:normal;font-feature-settings:normal;text-indent:0;text-align:start;text-decoration:none;text-decoration-line:none;text-decoration-style:solid;text-decoration-color:#000000;letter-spacing:normal;word-spacing:normal;text-transform:none;writing-mode:lr-tb;direction:ltr;text-orientation:mixed;dominant-baseline:auto;baseline-shift:baseline;text-anchor:start;white-space:normal;shape-padding:0;clip-rule:nonzero;display:inline;overflow:visible;visibility:visible;opacity:1;isolation:auto;mix-blend-mode:normal;color-interpolation:sRGB;color-interpolation-filters:linearRGB;solid-color:#000000;solid-opacity:1;vector-effect:none;fill:#fbfbfb;fill-opacity:1;fill-rule:nonzero;stroke:none;stroke-width:0.77959561;stroke-linecap:square;stroke-linejoin:miter;stroke-miterlimit:4;stroke-dasharray:none;stroke-dashoffset:0;stroke-opacity:1;color-rendering:auto;image-rendering:auto;shape-rendering:auto;text-rendering:auto;enable-background:accumulate"
         d="m 47.550781,253.06836 -0.310547,0.0488 -0.333984,0.0508 -0.349609,0.16015 -0.308594,0.1875 -0.332031,0.22657 -0.314454,0.24023 -0.302734,0.32227 -0.296875,0.3164 -0.294922,0.4043 -0.28125,0.38672 -0.285156,0.39258 -0.291016,0.4414 -0.283203,0.47852 -0.28125,0.4707 -0.28125,0.47071 -0.283203,0.47656 -0.28125,0.51367 -0.275391,0.46484 -0.28125,0.47071 -0.279296,0.4707 -0.277344,0.46289 -0.269531,0.41211 -0.275391,0.37695 -0.279297,0.38672 -0.267578,0.36524 -0.263672,0.28125 -0.257812,0.27539 -0.246094,0.1875 -0.298828,0.20312 -0.251953,0.1543 -0.208985,0.0957 -0.226562,0.0352 -0.251953,0.0391 h -0.19336 l -0.199218,-0.0625 -0.25586,-0.11719 -0.242187,-0.10937 -0.246094,-0.1875 -0.253906,-0.19531 -0.257813,-0.2754 -0.271484,-0.28906 -0.265625,-0.32422 -0.267578,-0.36914 -0.275391,-0.41992 -0.279297,-0.42773 -0.277344,-0.41993 -0.27539,-0.46289 -0.28125,-0.4707 -0.275391,-0.46484 -0.28125,-0.51367 -0.283203,-0.47657 -0.28125,-0.4707 -0.285156,-0.48047 -0.320313,-0.47656 -0.279297,-0.42578 -0.285156,-0.43555 -0.292969,-0.40234 -0.287109,-0.35157 -0.289063,-0.35156 -0.310546,-0.33203 -0.306641,-0.23437 -0.296875,-0.22657 -0.316406,-0.19336 -0.326172,-0.14843 -0.332031,-0.10157 L 29,253.07031 h -0.367188 l -0.335937,0.10157 -0.304687,0.0937 -0.34375,0.15626 -0.316407,0.24023 -0.304687,0.23437 -0.302735,0.32227 -0.289062,0.30859 -0.296875,0.36133 -0.28711,0.39453 -0.285156,0.39258 -0.279297,0.42774 -0.320312,0.43359 -0.291016,0.48828 -0.283203,0.47656 -0.217565,0.40391 0.444537,0.8012 0.173419,-0.31253 0.27539,-0.50586 0.277344,-0.46484 0.271485,-0.45508 0.310546,-0.41992 0.279297,-0.42969 0.275391,-0.37695 0.273437,-0.37696 0.265625,-0.32226 0.271485,-0.29102 0.257812,-0.27539 0.25586,-0.19336 0.24414,-0.1875 0.216797,-0.0996 0.25586,-0.0781 0.224609,-0.0684 h 0.193359 l 0.222656,0.0332 0.228516,0.0703 0.236328,0.10743 0.244141,0.14843 0.263672,0.20118 0.253906,0.19531 0.25,0.26562 0.271484,0.33203 0.273438,0.33399 0.267578,0.36914 0.275391,0.41992 0.28125,0.42774 0.310546,0.46484 0.275391,0.46094 0.28125,0.4707 0.275391,0.46484 0.28125,0.51368 0.283203,0.47656 0.28125,0.4707 0.285156,0.47852 0.285156,0.43359 0.279297,0.42774 0.285156,0.43554 0.292969,0.40235 0.296875,0.36132 0.289063,0.3086 0.302734,0.32226 0.304688,0.23438 0.316406,0.24023 0.318359,0.14649 0.304688,0.13867 0.361328,0.11133 h 0.367187 l 0.310547,-0.0469 0.333985,-0.0527 0.351562,-0.16016 0.306641,-0.1875 0.332031,-0.22656 0.316406,-0.24024 0.302735,-0.32226 0.296875,-0.31641 0.292968,-0.40429 0.28125,-0.38672 0.285157,-0.39258 0.291015,-0.44141 0.285157,-0.47851 0.279296,-0.47071 0.28125,-0.4707 0.283204,-0.47656 0.28125,-0.51367 0.27539,-0.46485 0.28125,-0.4707 0.279297,-0.4707 0.277344,-0.46289 0.269531,-0.41211 0.275391,-0.37696 0.28125,-0.38671 0.265625,-0.36524 0.263672,-0.28125 0.257812,-0.27539 0.246094,-0.1875 0.298828,-0.20312 0.251953,-0.1543 0.210937,-0.0957 0.226563,-0.0352 0.25,-0.0371 h 0.193359 l 0.199219,0.0605 0.257813,0.11718 0.240234,0.10938 0.246094,0.1875 L 49,254.5194 l 0.257812,0.27539 0.271485,0.29102 0.265625,0.32226 0.267578,0.36914 0.275391,0.41993 0.28125,0.42773 0.27539,0.41992 0.275391,0.46485 0.28125,0.4707 0.27539,0.46289 0.28125,0.51367 0.283204,0.47656 0.28125,0.47071 0.285156,0.48047 0.320312,0.47656 0.279297,0.42578 0.285157,0.4375 0.292968,0.40039 0.28711,0.35156 0.289062,0.35156 0.310547,0.33399 0.306641,0.23242 0.296875,0.22656 0.318359,0.19336 0.324219,0.14844 0.332031,0.10156 0.337891,0.0527 h 0.367187 l 0.335938,-0.10352 0.30664,-0.0918 0.34375,-0.15821 0.314453,-0.24023 0.306641,-0.23438 0.302734,-0.32226 0.289063,-0.3086 0.294922,-0.36132 0.287109,-0.39454 0.285156,-0.39257 0.28125,-0.42579 0.320313,-0.43554 0.289062,-0.48633 0.285157,-0.47656 0.279296,-0.51367 0.277344,-0.46485 0.279297,-0.4707 0.28125,-0.47071 0.279297,-0.4707 0.277344,-0.46289 0.27539,-0.42187 0.275391,-0.41993 0.273437,-0.37695 0.275391,-0.375 0.263672,-0.32422 0.261719,-0.27929 0.255859,-0.23438 0.251953,-0.19141 0.242188,-0.14843 0.236328,-0.10743 0.228516,-0.0703 0.222656,-0.0332 h 0.220703 l 0.197265,0.0293 0.232422,0.10547 0.267578,0.12304 0.277344,0.15039 0.230469,0.17578 0.257813,0.27539 0.271484,0.29102 0.271484,0.33203 0.273438,0.33399 0.269531,0.36718 0.269531,0.41407 0.28125,0.4707 0.279297,0.42773 0.273438,0.45703 0.279297,0.51368 0.08398,0.14062 0.199219,0.33594 0.201171,0.33398 0.07617,0.12891 0.28125,0.51367 0.28711,0.48438 0.28125,0.42773 0.279297,0.4707 0.291015,0.44336 0.292969,0.40039 0.287109,0.35157 0.289063,0.35156 0.289062,0.31055 0.300782,0.32226 0.332031,0.25195 0.353516,0.19141 0.291015,0.13477 0.330078,0.15039 0.363281,0.0566 h 0.339844 l 0.337891,-0.0527 0.332031,-0.10156 0.326172,-0.14844 0.316406,-0.19336 0.310547,-0.23632 0.304688,-0.2793 0.298828,-0.32031 0.294922,-0.35938 0.287109,-0.39453 0.287109,-0.39258 0.285157,-0.43555 0.285156,-0.43554 0.285156,-0.47852 0.279297,-0.4707 0.28125,-0.4707 0.279297,-0.47071 0.285156,-0.47656 0.279297,-0.51367 0.277344,-0.46289 0.269531,-0.45508 0.310547,-0.41992 0.28125,-0.42969 0.275391,-0.37695 0.273437,-0.37696 0.265625,-0.32226 0.271484,-0.29102 0.257813,-0.27539 0.253906,-0.19531 0.246094,-0.1875 0.216797,-0.0977 0.255859,-0.0781 0.224609,-0.0684 h 0.19336 l 0.222656,0.0332 0.228516,0.0703 0.236328,0.10743 0.242187,0.14843 0.265625,0.20118 0.253907,0.19531 0.25,0.26562 0.271484,0.33203 0.273437,0.33399 0.267579,0.36719 0.27539,0.41992 0.28125,0.42969 0.310547,0.46484 0.275391,0.46094 0.28125,0.4707 0.27539,0.46484 0.28125,0.51368 0.283203,0.47656 0.28125,0.4707 0.285157,0.47656 0.283203,0.43555 0.28125,0.42774 0.285156,0.43554 0.292969,0.40235 0.294922,0.36132 0.289062,0.3086 0.302735,0.32226 0.30664,0.23438 0.314453,0.24023 0.320313,0.14649 0.304687,0.13867 0.361329,0.11133 h 0.367187 l 0.310547,-0.0488 0.333984,-0.0508 0.34961,-0.16016 0.308593,-0.1875 0.332032,-0.22656 0.314453,-0.24024 0.302734,-0.32226 0.296875,-0.31641 0.294922,-0.40625 0.28125,-0.38476 0.285156,-0.39258 0.291016,-0.44336 0.283203,-0.47656 0.28125,-0.47071 0.279297,-0.4707 0.285156,-0.47656 0.279297,-0.51367 0.277344,-0.46485 0.281242,-0.4707 0.2793,-0.4707 0.27734,-0.46289 0.26954,-0.41211 0.27539,-0.37891 0.27929,-0.38476 0.26758,-0.36524 0.26367,-0.28125 0.25782,-0.27539 0.24609,-0.1875 0.29883,-0.20312 0.25195,-0.1543 0.20898,-0.0957 0.22657,-0.0352 0.25195,-0.0391 h 0.19336 l 0.19922,0.0625 0.25586,0.11718 0.24219,0.10938 0.24414,0.1875 0.25586,0.19531 0.25781,0.27539 0.27148,0.28906 0.26563,0.32422 0.26758,0.36914 0.27539,0.41993 0.27929,0.42773 0.27735,0.41992 0.27539,0.46289 0.28125,0.47071 0.27539,0.46484 0.28125,0.51367 0.2832,0.47656 0.28125,0.47071 0.28516,0.48047 0.32031,0.47656 0.2793,0.42578 0.28515,0.43555 0.29297,0.40234 0.28711,0.35156 0.28906,0.35156 0.31055,0.33399 0.30664,0.23242 0.29688,0.22656 0.3164,0.19336 0.32617,0.14844 0.33204,0.10156 0.33789,0.0527 h 0.36718 l 0.33594,-0.10352 0.30469,-0.0937 0.34375,-0.15625 0.3164,-0.24023 0.30469,-0.23438 0.30274,-0.32226 0.28906,-0.3086 0.29687,-0.36132 0.28711,-0.39454 0.28516,-0.39257 0.2793,-0.42774 0.32031,-0.43359 0.29102,-0.48633 0.2832,-0.47852 0.28125,-0.51171 0.27539,-0.46485 0.28125,-0.4707 0.28125,-0.47071 0.2793,-0.4707 0.27539,-0.46289 0.27734,-0.42187 0.27539,-0.41993 0.27344,-0.37695 0.27344,-0.375 0.26562,-0.32422 0.26172,-0.27929 0.25586,-0.23438 0.25,-0.19141 0.24414,-0.14843 0.23633,-0.10743 0.22851,-0.0703 0.22266,-0.0332 h 0.2207 l 0.19727,0.0293 0.23047,0.10547 0.26953,0.12304 0.27734,0.15039 0.23047,0.17578 0.25781,0.27539 0.27149,0.29102 0.27148,0.33203 0.28125,0.3418 0.0898,0.10312 0.40323,-0.72248 -0.17073,-0.21658 -0.28906,-0.35156 -0.28907,-0.31055 -0.30273,-0.32226 -0.33008,-0.25196 -0.35352,-0.1914 -0.29296,-0.13477 -0.32813,-0.15039 -0.36523,-0.0566 h -0.33789 l -0.33789,0.0527 -0.33204,0.10157 -0.32617,0.14843 -0.3164,0.19336 -0.31055,0.23633 -0.30469,0.2793 -0.29883,0.32031 -0.29687,0.35938 -0.28516,0.39453 -0.28711,0.39258 -0.28515,0.43554 -0.28516,0.43555 -0.28516,0.47851 -0.27929,0.47071 -0.28125,0.4707 -0.2793,0.4707 -0.28516,0.47657 -0.27929,0.51367 -0.27735,0.46289 -0.27148,0.45508 -0.31055,0.41992 -0.2793,0.42969 -0.27539,0.37695 -0.27343,0.37695 -0.26563,0.32227 -0.27148,0.29101 -0.25781,0.27539 -0.25586,0.19532 -0.24414,0.1875 -0.21876,0.0977 -0.2539,0.0781 -0.22461,0.0684 h -0.19336 l -0.22266,-0.0332 -0.22851,-0.0703 -0.23633,-0.10742 -0.24414,-0.14844 -0.26367,-0.20117 -0.25391,-0.19531 -0.25,-0.26563 -0.27148,-0.33203 -0.27344,-0.33398 -0.26758,-0.36914 -0.27539,-0.41797 -0.28125,-0.42969 -0.3125,-0.46484 -0.27344,-0.46094 -0.28125,-0.4707 -0.27734,-0.46485 -0.2793,-0.51367 -0.28515,-0.47656 -0.2793,-0.4707 -0.28516,-0.47657 -0.28515,-0.43554 -0.2793,-0.42774 -0.28711,-0.43555 -0.29101,-0.40234 -0.29688,-0.36133 -0.28906,-0.30859 -0.30274,-0.32227 -0.30468,-0.23437 -0.31641,-0.24024 -0.31836,-0.14648 -0.30469,-0.13867 -0.36133,-0.11133 h -0.36718 l -0.31055,0.0469 -0.33398,0.0527 -0.35157,0.16015 -0.30664,0.1875 -0.33398,0.22461 -0.31445,0.24024 -0.30274,0.32422 -0.29687,0.3164 -0.29297,0.4043 -0.28125,0.38672 -0.28516,0.39258 -0.291011,0.4414 -0.285156,0.47852 -0.279297,0.4707 -0.28125,0.47071 -0.283203,0.47656 -0.28125,0.51367 -0.275391,0.46484 -0.28125,0.47071 -0.28125,0.4707 -0.27539,0.46289 -0.269532,0.41211 -0.27539,0.37695 -0.28125,0.38672 -0.265625,0.36524 -0.263672,0.28125 -0.257813,0.27539 -0.246094,0.1875 -0.298828,0.20312 -0.251953,0.1543 -0.210937,0.0957 -0.226563,0.0352 -0.25,0.0371 h -0.193359 l -0.199219,-0.0605 -0.257812,-0.11719 -0.240235,-0.10937 -0.246094,-0.1875 -0.253906,-0.19531 -0.257812,-0.2754 -0.271485,-0.28906 -0.265625,-0.32422 -0.267578,-0.36914 -0.27539,-0.41992 -0.28125,-0.42773 -0.275391,-0.41993 -0.275391,-0.46484 -0.28125,-0.46875 -0.27539,-0.46484 -0.28125,-0.51367 -0.283203,-0.47657 -0.28125,-0.4707 -0.285157,-0.48047 -0.320312,-0.47656 -0.279297,-0.42578 -0.285156,-0.4375 -0.292969,-0.40039 -0.287109,-0.35157 -0.289063,-0.35156 -0.310547,-0.33398 -0.30664,-0.23242 -0.296875,-0.22657 -0.31836,-0.19336 -0.324218,-0.14843 -0.332032,-0.10157 -0.33789,-0.0527 h -0.367188 l -0.335937,0.10352 -0.306641,0.0937 -0.34375,0.15626 -0.314453,0.24023 -0.306641,0.23437 -0.302734,0.32227 -0.289063,0.30859 -0.294921,0.36133 -0.28711,0.39453 -0.285156,0.39258 -0.279297,0.42774 -0.320313,0.43359 -0.291015,0.48633 -0.285156,0.47851 -0.279297,0.51172 -0.277344,0.46485 -0.279297,0.4707 -0.28125,0.4707 -0.279297,0.4707 -0.277344,0.4629 -0.27539,0.42187 -0.275391,0.41992 -0.273437,0.37696 -0.275391,0.375 -0.263672,0.32421 -0.261719,0.2793 -0.255859,0.23438 -0.251953,0.1914 -0.242188,0.14844 -0.236328,0.10742 -0.228515,0.0703 -0.222657,0.0332 h -0.220703 l -0.197265,-0.0293 -0.232422,-0.10547 -0.267578,-0.12305 -0.277344,-0.15039 -0.230469,-0.17578 -0.257812,-0.27539 -0.271485,-0.29101 -0.271484,-0.33203 -0.273438,-0.33399 -0.269531,-0.36719 -0.269531,-0.41406 -0.28125,-0.4707 -0.279297,-0.42774 -0.273437,-0.45703 -0.279297,-0.51367 -0.08398,-0.14062 -0.199218,-0.33399 -0.002,-0.002 -0.199218,-0.33399 -0.07617,-0.1289 -0.279297,-0.51367 -0.289063,-0.48438 -0.28125,-0.42773 -0.279296,-0.47071 -0.291016,-0.44336 -0.292969,-0.40039 -0.287109,-0.35156 -0.28711,-0.35156 -0.291015,-0.3086 -0.300781,-0.32421 -0.332032,-0.25196 -0.353515,-0.1914 -0.291016,-0.13477 -0.330078,-0.15039 -0.363281,-0.0547 H 66.125 l -0.337891,0.0508 -0.332031,0.10157 -0.324219,0.14843 -0.318359,0.19336 -0.310547,0.23633 -0.304687,0.2793 -0.298828,0.32031 -0.294922,0.36133 -0.28711,0.39258 -0.287109,0.39258 -0.285156,0.4375 -0.285157,0.43359 -0.285156,0.47851 -0.279297,0.47071 -0.28125,0.4707 -0.279297,0.4707 -0.285156,0.47657 -0.279297,0.51367 -0.277343,0.46289 -0.269532,0.45508 -0.310547,0.42187 -0.28125,0.42774 -0.27539,0.37695 -0.273438,0.37695 -0.265625,0.32422 -0.271484,0.28906 -0.257813,0.27539 -0.253906,0.19532 -0.246094,0.1875 -0.216797,0.0996 -0.255859,0.0762 -0.224609,0.0703 h -0.19336 l -0.222656,-0.0352 -0.228516,-0.0703 -0.236328,-0.10742 -0.242187,-0.14844 -0.265625,-0.20117 -0.253906,-0.19336 -0.25,-0.26758 -0.271485,-0.33203 -0.273437,-0.33398 -0.267578,-0.36719 -0.275391,-0.41992 -0.28125,-0.42969 -0.310547,-0.46484 -0.27539,-0.46094 -0.28125,-0.4707 -0.275391,-0.46485 -0.28125,-0.51367 -0.283203,-0.47656 -0.28125,-0.4707 -0.285156,-0.47657 -0.283204,-0.43554 -0.28125,-0.42774 -0.285156,-0.43555 -0.292969,-0.40234 -0.294921,-0.36133 -0.289063,-0.30859 -0.302734,-0.32227 -0.306641,-0.23437 -0.314453,-0.24024 -0.320313,-0.14648 -0.304687,-0.13867 -0.361328,-0.11133 z"
         id="path5387"
         inkscape:connector-curvature="0"
         sodipodi:nodetypes="cccccccccccccccccccccccccccccccccccccccccccccccccccccccccccccccccccccccccccccccccccccccccccccccccccccccccccccccccccccccccccccccccccccccccccccccccccccccccccccccccccccccccccccccccccccccccccccccccccccccccccccccccccccccccccccccccccccccccccccccccccccccccccccccccccccccccccccccccccccccccccccccccccccccccccccccccccccccccccccccccccccccccccccccccccccccccccccccccccccccccccccccccccccccccccccccccccccccccccccccccccccccccccccccccccccccccccccccccccccccccccccccccccccccccccccccccccccccccccccccccccccccccccccccccccccccccccccccccccccccccccccccccccccccccccccccccccccccccccccccccccccccccccccccccccccccccccccccccccccccccccccccccccccccccccccccccccccccccccccccccccccccccccccccccccccccccccccccccccccccccccccccccccccccccccccccccccccccccccccccccccc" />
    </g>
  </g>
</svg>
