<?xml version="1.0" encoding="UTF-8" standalone="no"?>
<!DOCTYPE svg PUBLIC "-//W3C//DTD SVG 1.1//EN" "http://www.w3.org/Graphics/SVG/1.1/DTD/svg11.dtd">
<svg width="100%" height="100%" viewBox="0 0 4201 1800" version="1.1" xmlns="http://www.w3.org/2000/svg" xmlns:xlink="http://www.w3.org/1999/xlink" xml:space="preserve" xmlns:serif="http://www.serif.com/" style="fill-rule:evenodd;clip-rule:evenodd;stroke-linejoin:round;stroke-miterlimit:2;">
    <g transform="matrix(1,0,0,1,-4797,-3570)">
        <g id="Black-on-white" serif:id="Black on white" transform="matrix(2.90035,0,0,3.84445,4797.88,3570)">
            <rect x="0" y="0" width="1448.1" height="468.208" style="fill:white;"/>
            <g id="Layer1" transform="matrix(0.344786,0,0,0.260116,230.595,28.6687)">
                <g transform="matrix(3.37599,0,0,-3.37599,-2.93267,1115.33)">
                    <path d="M177.546,123.839C177.546,138.365 165.77,150.141 151.244,150.141L97.461,150.141L97.461,169.15L151.244,169.15C176.269,169.15 196.555,148.864 196.555,123.839L196.555,123.837C196.555,104.095 183.93,87.303 166.314,81.092L190.177,35.531L168.539,35.531L145.973,78.525L97.461,78.525L97.461,97.535L151.244,97.535C165.77,97.535 177.546,109.31 177.546,123.837C177.547,122.167 177.546,123.839 177.546,123.839ZM177.546,123.837L177.546,123.839L177.546,123.837Z"/>
                </g>
                <g transform="matrix(5.06027,0,0,1.7178,-1118.79,-307.539)">
                    <path d="M259.12,584.928C259.12,556.38 251.264,533.237 241.573,533.237L205.691,533.237L205.691,495.877L241.573,495.877C258.268,495.877 271.803,535.747 271.803,584.928L271.803,584.933C271.803,634.114 258.268,673.984 241.573,673.984L218.57,673.984L218.57,758.481L205.691,758.481L205.691,636.624L241.573,636.624C251.264,636.624 259.12,613.481 259.12,584.933C259.121,588.214 259.12,584.928 259.12,584.928ZM259.12,584.933L259.12,584.928L259.12,584.933Z"/>
                </g>
                <g transform="matrix(4.00189,-3.09696,6.45982,8.34735,-4020.31,-4502.27)">
                    <path d="M208.354,709.779L208.354,682.007L220.899,686.662L220.899,708.22L264.429,702.812L276.975,707.467L220.899,714.434L220.899,740.465L208.354,735.81L208.354,715.992L168.339,720.964L155.793,716.31L208.354,709.779Z"/>
                </g>
                <g transform="matrix(3.37599,0,0,-3.37599,2323.59,1115.33)">
                    <path d="M105.496,158.857L115.34,177.627L126.079,157.915L190.177,35.531L168.539,35.531L115.374,136.812L62.127,35.531L41.121,35.531L105.496,158.857Z"/>
                </g>
                <g transform="matrix(5.06027,0,0,5.06027,696.269,-2829.11)">
                    <path d="M220.908,666.862L220.908,755.631L208.345,755.631L208.345,666.862L220.908,666.862Z" style="fill-rule:nonzero;"/>
                </g>
                <g transform="matrix(5.24504,0,0,5.24504,-4426.65,-2968.51)">
                    <path d="M1227.51,700.757L1227.51,755.475L1215.63,755.475L1215.63,662.904L1259.64,725.211L1303.6,662.903L1303.6,755.475L1291.47,755.475L1291.47,698.915L1259.07,744.728L1227.51,700.757Z" style="fill-rule:nonzero;"/>
                </g>
                <g transform="matrix(5.21368,0,0,5.21368,-3097.71,-2938.23)">
                    <path d="M734.513,711.307C734.513,705.213 735.671,699.465 737.987,694.062C740.303,688.659 743.532,683.865 747.676,679.681C751.819,675.497 756.592,672.207 761.995,669.81C767.398,667.413 773.228,666.215 779.484,666.215C785.66,666.215 791.449,667.413 796.852,669.81C802.255,672.207 807.048,675.497 811.232,679.681C815.416,683.865 818.686,688.659 821.042,694.061C823.399,699.465 824.577,705.213 824.577,711.307C824.577,717.563 823.399,723.413 821.042,728.857C818.686,734.301 815.416,739.074 811.232,743.177C807.048,747.28 802.254,750.489 796.852,752.804C791.448,755.12 785.659,756.278 779.484,756.278C773.228,756.278 767.399,755.14 761.996,752.865C756.593,750.591 751.82,747.422 747.676,743.36C743.532,739.297 740.303,734.544 737.987,729.1C735.671,723.657 734.513,717.726 734.513,711.307ZM746.787,711.429C746.787,716.048 747.638,720.363 749.34,724.374C751.042,728.386 753.392,731.931 756.39,735.011C759.389,738.09 762.873,740.501 766.844,742.243C770.814,743.985 775.109,744.856 779.728,744.856C784.265,744.856 788.52,743.985 792.49,742.243C796.461,740.501 799.904,738.091 802.821,735.011C805.739,731.932 808.049,728.386 809.751,724.374C811.452,720.363 812.303,716.007 812.303,711.307C812.303,706.688 811.452,702.332 809.751,698.24C808.049,694.147 805.699,690.561 802.7,687.482C799.702,684.402 796.217,681.992 792.247,680.249C788.276,678.507 784.022,677.636 779.484,677.636C774.866,677.636 770.571,678.527 766.601,680.31C762.63,682.093 759.145,684.524 756.147,687.603C753.149,690.683 750.839,694.268 749.218,698.361C747.598,702.453 746.787,706.809 746.787,711.429Z" style="fill-rule:nonzero;"/>
                </g>
            </g>
        </g>
    </g>
</svg>
