<?xml version="1.0" encoding="utf-8" standalone="no"?>
<!DOCTYPE svg PUBLIC "-//W3C//DTD SVG 1.1//EN"
  "http://www.w3.org/Graphics/SVG/1.1/DTD/svg11.dtd">
<!-- Created with matplotlib (http://matplotlib.org/) -->
<svg height="344pt" version="1.1" viewBox="0 0 460 344" width="460pt" xmlns="http://www.w3.org/2000/svg" xmlns:xlink="http://www.w3.org/1999/xlink">
 <defs>
  <style type="text/css">
*{stroke-linecap:butt;stroke-linejoin:round;}
  </style>
 </defs>
 <g id="figure_1">
  <g id="patch_1">
   <path d="M 0 344.16 
L 460.8 344.16 
L 460.8 0 
L 0 0 
z
" style="fill:#ffffff;"/>
  </g>
  <g id="patch_2">
   <path d="M 71.5845 330.8955 
L 389.2155 330.8955 
L 389.2155 13.2645 
L 71.5845 13.2645 
z
" style="fill:#ffffff;"/>
  </g>
  <g id="axes_1">
   <g id="line2d_1">
    <path clip-path="url(#p400d75ab08)" d="M 352.078013 218.969038 
L 291.201063 230.269882 
L 278.079286 170.43356 
L 323.870243 164.640805 
L 300.057725 208.152404 
L 247.965234 180.466127 
L 271.434252 128.927209 
L 302.392773 151.089466 
L 253.816721 168.689562 
L 234.192616 115.547732 
L 210.027722 112.642711 
L 155.139241 94.33588 
L 163.253408 95.995014 
L 168.809011 151.816211 
L 116.260505 168.835336 
L 129.657995 188.039745 
L 120.139585 167.164494 
L 166.29931 155.977246 
L 185.449491 201.720675 
L 171.904134 193.904884 
" style="fill:none;stroke:#ff0000;stroke-linecap:square;stroke-width:1.5;"/>
   </g>
   <g id="line2d_2">
    <path clip-path="url(#p400d75ab08)" d="M 356.913979 198.025483 
L 331.793413 178.133061 
L 285.495857 166.27935 
L 264.994031 218.050728 
L 263.244766 205.988678 
L 238.999067 154.738492 
L 199.85348 180.471784 
L 186.552115 217.767894 
L 167.131835 170.851432 
L 131.643131 156.877159 
L 168.29257 124.630527 
L 146.723582 72.673255 
L 102.121719 83.810475 
L 137.638388 87.302726 
L 148.908719 28.779028 
L 208.18959 38.691332 
L 232.680448 26.203149 
L 257.468357 66.880485 
L 311.632804 81.808609 
L 345.343018 65.139549 
" style="fill:none;stroke:#008000;stroke-linecap:square;stroke-width:1.5;"/>
   </g>
   <g id="line2d_3">
    <path clip-path="url(#p400d75ab08)" d="M 329.470003 209.376993 
L 293.17687 227.271745 
L 277.343008 168.677751 
L 324.334964 164.395666 
L 300.734277 206.965991 
L 248.465307 180.862717 
L 271.689507 129.654612 
L 297.705152 156.468912 
L 246.112761 167.765309 
L 232.80455 112.773143 
L 211.057092 108.135315 
L 156.594104 87.499135 
L 159.613454 92.126613 
L 165.054999 148.199873 
L 111.589103 162.212664 
L 127.718306 194.778184 
L 119.371775 170.157929 
L 166.369354 158.089176 
L 189.774326 204.200182 
L 180.324685 196.347229 
" style="fill:none;stroke:#ffa500;stroke-linecap:square;stroke-width:1.5;"/>
   </g>
  </g>
 </g>
 <defs>
  <clipPath id="p400d75ab08">
   <rect height="317.631" width="317.631" x="71.5845" y="13.2645"/>
  </clipPath>
 </defs>
</svg>
